<svg width="70" height="70" viewBox="0 0 70 70" fill="none" xmlns="http://www.w3.org/2000/svg">
<rect width="70" height="70" rx="13.1283" fill="#FBCFFB"/>
<rect x="9.33594" y="9.33594" width="51.3333" height="51.3333" rx="8.7522" fill="white"/>
<path d="M34.07 22.5046C28.7958 22.5098 26.0669 22.6041 24.3356 24.3354C22.6044 26.0666 22.51 28.7955 22.5049 34.0697H28.6483C28.2095 33.5216 27.8816 32.8751 27.7028 32.1599C27.0298 29.468 29.4682 27.0296 32.1602 27.7026C32.8753 27.8814 33.5219 28.2093 34.07 28.6481V22.5046Z" fill="#791A79"/>
<path d="M22.5049 35.9452C22.51 41.2194 22.6044 43.9483 24.3356 45.6796C26.0669 47.4108 28.7958 47.5052 34.07 47.5103V37.6627C33.0952 39.6097 31.0818 40.9465 28.7562 40.9465C28.2383 40.9465 27.8184 40.5266 27.8184 40.0087C27.8184 39.4908 28.2383 39.071 28.7562 39.071C30.6776 39.071 32.2876 37.7374 32.7109 35.9452H22.5049Z" fill="#791A79"/>
<path d="M35.9455 47.5103C41.2197 47.5052 43.9486 47.4108 45.6798 45.6796C47.4111 43.9483 47.5054 41.2194 47.5106 35.9452H37.3045C37.7278 37.7374 39.3378 39.071 41.2593 39.071C41.7772 39.071 42.197 39.4908 42.197 40.0087C42.197 40.5266 41.7772 40.9465 41.2593 40.9465C38.9337 40.9465 36.9203 39.6097 35.9455 37.6627V47.5103Z" fill="#791A79"/>
<path d="M47.5106 34.0697C47.5054 28.7955 47.4111 26.0666 45.6798 24.3354C43.9486 22.6041 41.2197 22.5098 35.9455 22.5046V28.6481C36.4936 28.2093 37.1401 27.8814 37.8553 27.7026C40.5472 27.0296 42.9856 29.468 42.3126 32.1599C42.1338 32.8751 41.806 33.5216 41.3671 34.0697H47.5106Z" fill="#791A79"/>
<path d="M31.7053 29.5221C33.095 29.8695 34.07 31.1182 34.07 32.5507V34.0697H32.551C31.1184 34.0697 29.8697 33.0948 29.5223 31.705C29.1927 30.3867 30.3869 29.1925 31.7053 29.5221Z" fill="#791A79"/>
<path d="M35.9455 32.5507V34.0697H37.4645C38.897 34.0697 40.1457 33.0948 40.4932 31.705C40.8227 30.3867 39.6286 29.1925 38.3102 29.5221C36.9204 29.8695 35.9455 31.1182 35.9455 32.5507Z" fill="#791A79"/>
</svg>
