<svg width="70" height="70" viewBox="0 0 70 70" fill="none" xmlns="http://www.w3.org/2000/svg">
<rect width="70" height="70" rx="13.1283" fill="#FBCFFB"/>
<rect x="9.33203" y="9.33594" width="51.3333" height="51.3333" rx="8.7522" fill="white"/>
<path d="M45.1253 37.9156L45.3666 35.5474C45.4954 34.2838 45.5804 33.4495 45.5137 32.9238L45.537 32.9239C46.6273 32.9239 47.5112 31.9909 47.5112 30.8401C47.5112 29.6892 46.6273 28.7562 45.537 28.7562C44.4467 28.7562 43.5628 29.6892 43.5628 30.8401C43.5628 31.3606 43.7436 31.8365 44.0425 32.2017C43.6134 32.4813 43.0524 33.0712 42.2079 33.9591L42.2079 33.9591C41.5573 34.6432 41.232 34.9852 40.8691 35.0382C40.668 35.0675 40.4632 35.0373 40.2775 34.951C39.9424 34.7953 39.719 34.3725 39.2722 33.5268L36.917 29.0693C36.6413 28.5476 36.4106 28.111 36.2026 27.7596C37.0559 27.3001 37.6403 26.3636 37.6403 25.2831C37.6403 23.7486 36.4618 22.5046 35.008 22.5046C33.5543 22.5046 32.3758 23.7486 32.3758 25.2831C32.3758 26.3636 32.9601 27.3001 33.8134 27.7596C33.6054 28.111 33.3747 28.5476 33.0991 29.0693L30.7439 33.5268C30.297 34.3724 30.0736 34.7953 29.7385 34.951C29.5529 35.0373 29.348 35.0675 29.1469 35.0382C28.7841 34.9852 28.4588 34.6432 27.8082 33.9591C26.9637 33.0712 26.4027 32.4813 25.9736 32.2017C26.2725 31.8365 26.4532 31.3606 26.4532 30.8401C26.4532 29.6892 25.5694 28.7562 24.4791 28.7562C23.3888 28.7562 22.5049 29.6892 22.5049 30.8401C22.5049 31.9909 23.3888 32.9239 24.4791 32.9239L24.5024 32.9238C24.4357 33.4495 24.5207 34.2838 24.6494 35.5474L24.8907 37.9156C25.0247 39.2301 25.1361 40.4809 25.2725 41.6067H44.7435C44.88 40.4809 44.9913 39.2301 45.1253 37.9156Z" fill="#791A79"/>
<path d="M33.5762 47.5109H36.4399C40.1723 47.5109 42.0385 47.5109 43.2837 46.3345C43.8272 45.821 44.1713 44.8953 44.4196 43.6905H25.5964C25.8447 44.8953 26.1889 45.821 26.7324 46.3345C27.9775 47.5109 29.8437 47.5109 33.5762 47.5109Z" fill="#791A79"/>
</svg>
