<svg width="70" height="70" viewBox="0 0 70 70" fill="none" xmlns="http://www.w3.org/2000/svg">
<rect width="70" height="70" rx="13.1283" fill="#FBCFFB"/>
<rect x="9.33594" y="9.33594" width="51.3333" height="51.3333" rx="8.7522" fill="white"/>
<path fill-rule="evenodd" clip-rule="evenodd" d="M32.5012 25.0051H37.5149C42.2419 25.0051 44.6053 25.0051 46.0738 26.47C47.0849 27.4785 47.3998 28.9103 47.4979 31.2435C47.5174 31.7062 47.5271 31.9376 47.4407 32.0919C47.3543 32.2463 47.0094 32.4389 46.3195 32.8242C45.5533 33.252 45.0354 34.0695 45.0354 35.0076C45.0354 35.9458 45.5533 36.7633 46.3195 37.1911C47.0094 37.5764 47.3543 37.769 47.4407 37.9233C47.5271 38.0777 47.5174 38.309 47.4979 38.7717C47.3998 41.1049 47.0849 42.5367 46.0738 43.5453C44.6053 45.0101 42.2419 45.0101 37.5149 45.0101H32.5012C27.7742 45.0101 25.4107 45.0101 23.9422 43.5453C22.9311 42.5367 22.6162 41.1049 22.5181 38.7717C22.4987 38.309 22.4889 38.0777 22.5753 37.9233C22.6617 37.769 23.0067 37.5764 23.6965 37.1911C24.4627 36.7633 24.9806 35.9458 24.9806 35.0076C24.9806 34.0695 24.4627 33.252 23.6965 32.8242C23.0067 32.4389 22.6617 32.2463 22.5753 32.0919C22.4889 31.9376 22.4987 31.7062 22.5181 31.2435C22.6162 28.9103 22.9311 27.4785 23.9422 26.47C25.4107 25.0051 27.7742 25.0051 32.5012 25.0051ZM39.4439 30.5936C39.8111 30.9598 39.8111 31.5536 39.4439 31.9198L31.9234 39.4217C31.5562 39.7879 30.961 39.7879 30.5939 39.4217C30.2268 39.0555 30.2268 38.4617 30.5939 38.0955L38.1145 30.5936C38.4816 30.2274 39.0768 30.2274 39.4439 30.5936ZM38.1525 39.3837C38.8447 39.3837 39.4059 38.824 39.4059 38.1334C39.4059 37.4429 38.8447 36.8831 38.1525 36.8831C37.4602 36.8831 36.8991 37.4429 36.8991 38.1334C36.8991 38.824 37.4602 39.3837 38.1525 39.3837ZM31.8853 33.1322C32.5776 33.1322 33.1388 32.5724 33.1388 31.8819C33.1388 31.1913 32.5776 30.6315 31.8853 30.6315C31.1931 30.6315 30.6319 31.1913 30.6319 31.8819C30.6319 32.5724 31.1931 33.1322 31.8853 33.1322Z" fill="#791A79"/>
</svg>
